Music_FunkyGames:					; Blues style theme
	channel_count 4					; Composed by LuciShrimp
	channel 1, Music_FunkyGames_Ch1
	channel 2, Music_FunkyGames_Ch2
	channel 3, Music_FunkyGames_Ch3
	channel 4, Music_FunkyGames_Ch4

Music_FunkyGames_Ch1:
	tempo 256
	volume 7, 7
	note_type 12, 15, 8
.mainLoop:
	note_type 6, 12, 1
	tempo 174
	octave 4
	duty_cycle 2
	vibrato 0, 3, 3
.loop1:
	duty_cycle 3
	octave 3
	tempo 190
	volume_envelope 8, 2
	note B_, 1
	octave 4
	note F#, 1
	octave 3
	volume_envelope 7, 2
	note B_, 1
	octave 4
	note F#, 1
	octave 3
	volume_envelope 6, 2
	note B_, 1
	octave 4
	note F#, 1
	octave 3
	volume_envelope 5, 2
	note B_, 1
	octave 4
	note F#, 1
	octave 3
	volume_envelope 4, 2
	note B_, 1
	octave 4
	note F#, 1
	octave 3
	volume_envelope 3, 2
	note B_, 1
	octave 4
	note F#, 1
	octave 3
	volume_envelope 2, 2
	note B_, 1
	octave 4
	note F#, 1
	octave 3
	volume_envelope 1, 2
	note B_, 1
	octave 4
	note F#, 1
	volume_envelope 7, 2
	octave 3
	note B_, 1
	octave 4
	note F#, 1
	volume_envelope 5, 2
	octave 3
	note B_, 1
	octave 4
	note F#, 1
	volume_envelope 3, 2
	octave 3
	note B_, 1
	octave 4
	note F#, 1
	volume_envelope 2, 2
	octave 3
	note B_, 1
	octave 4
	note F#, 1
	note_type 12, 6, 8
	rest 1
	note E_, 1
	note D_, 1
	octave 3
	note B_, 1
	note_type 6, 12, 2
	note B_, 1
	octave 4
	note F_, 1
	volume_envelope 11, 2
	octave 3
	note B_, 1
	octave 4
	note F_, 1
	volume_envelope 10, 2
	octave 3
	note B_, 1
	octave 4
	note F_, 1
	volume_envelope 9, 2
	octave 3
	note B_, 1
	octave 4
	note F_, 1
	volume_envelope 8, 2
	octave 3
	note B_, 1
	octave 4
	note F_, 1
	volume_envelope 7, 2
	octave 3
	note B_, 1
	octave 4
	note F_, 1
	volume_envelope 6, 2
	octave 3
	note B_, 1
	octave 4
	note F_, 1
	volume_envelope 5, 2
	octave 3
	note B_, 1
	octave 4
	note F_, 1
	volume_envelope 7, 2
	octave 3
	note B_, 1
	octave 4
	note F_, 1
	volume_envelope 5, 2
	octave 3
	note B_, 1
	octave 4
	note F_, 1
	volume_envelope 3, 2
	octave 3
	note B_, 1
	octave 4
	note F_, 1
	volume_envelope 2, 2
	octave 3
	note B_, 1
	octave 4
	note F_, 1
	note_type 12, 6, 8
	note A_, 2
	note F#, 1
	note F_, 1
	note_type 6, 12, 2
	octave 3
	note A_, 1
	octave 4
	note F#, 1
	volume_envelope 11, 2
	octave 3
	note A_, 1
	octave 4
	note F#, 1
	volume_envelope 10, 2
	octave 3
	note A_, 1
	octave 4
	note F#, 1
	volume_envelope 9, 2
	octave 3
	note A_, 1
	octave 4
	note F#, 1
	volume_envelope 8, 2
	octave 3
	note A_, 1
	octave 4
	note F#, 1
	volume_envelope 7, 2
	octave 3
	note A_, 1
	octave 4
	note F#, 1
	volume_envelope 6, 2
	octave 3
	note A_, 1
	octave 4
	note F#, 1
	volume_envelope 5, 2
	octave 3
	note A_, 1
	octave 4
	note F#, 1
	volume_envelope 7, 2
	octave 3
	note A_, 1
	octave 4
	note F#, 1
	volume_envelope 5, 2
	octave 3
	note A_, 1
	octave 4
	note F#, 1
	volume_envelope 3, 2
	octave 3
	note A_, 1
	octave 4
	note F#, 1
	volume_envelope 2, 2
	octave 3
	note A_, 1
	octave 4
	note F#, 1
	octave 5
	note_type 12, 5, 8
	note D_, 1
	octave 4
	note B_, 1
	note A_, 1
	note F#, 1
	note_type 6, 12, 2
	note D_, 1
	note A_, 1
	volume_envelope 11, 2
	note D_, 1
	note A_, 1
	volume_envelope 10, 2
	note D_, 1
	note A_, 1
	volume_envelope 9, 2
	note D_, 1
	note A_, 1
	volume_envelope 8, 2
	note D_, 1
	note A_, 1
	volume_envelope 7, 2
	note D_, 1
	note A_, 1
	volume_envelope 6, 2
	note D_, 1
	note A_, 1
	volume_envelope 5, 2
	note D_, 1
	note A_, 1
	volume_envelope 12, 2
	note E_, 1
	note B_, 1
	volume_envelope 11, 2
	note E_, 1
	note B_, 1
	volume_envelope 10, 2
	note E_, 1
	note B_, 1
	volume_envelope 9, 2
	note E_, 1
	note B_, 1
	volume_envelope 10, 2
	note F_, 1
	octave 5
	note D_, 1
	volume_envelope 8, 2
	octave 4
	note F_, 1
	octave 5
	note D_, 1
	volume_envelope 6, 2
	octave 4
	note F_, 1
	octave 5
	note D_, 1
	volume_envelope 4, 2
	octave 4
	note F_, 1
	octave 5
	note D_, 1
	octave 4
	sound_loop 2, .loop1
	octave 3
	note_type 12, 14, 3
	sound_call .sub1
	octave 4
	note D_, 1
	note_type 12, 14, 3
	note E_, 3
	note D_, 1
	octave 3
	note B_, 1
	note_type 6, 14, 3
	note A_, 1
	note F#, 1
	note_type 12, 14, 3
	note F_, 1
	note F#, 1
	note A_, 3
	note F#, 1
	note F_, 1
	note_type 6, 14, 3
	note E_, 1
	note D_, 1
	note_type 12, 14, 3
	note E_, 4
	note F_, 4
	sound_call .sub1
	note_type 6, 14, 3
	note B_, 1
	octave 4
	note_type 12, 14, 3
	note A_, 3
	note F#, 1
	note F_, 1
	note_type 6, 14, 3
	note E_, 1
	note D_, 1
	note_type 8, 14, 3
	note E_, 2
	note A_, 2
	note F#, 2
	note F_, 2
	note B_, 2
	note A_, 2
	note F#, 2
	note E_, 2
	note D_, 2
	note F_, 2
	note D_, 2
	octave 3
	note A_, 2
	note_type 12, 14, 3
	sound_call .sub1
	octave 3
	note_type 6, 14, 3
	note B_, 1
	octave 4
	note_type 12, 14, 3
	note B_, 3
	note A_, 1
	note E_, 1
	note_type 6, 14, 3
	note F_, 1
	note F#, 1
	note_type 12, 14, 3
	note A_, 1
	note A_, 2
	note F#, 1
	note B_, 2
	octave 5
	note_type 6, 14, 3
	note D_, 1
	octave 4
	note B_, 1
	note A_, 1
	note F#, 1
	note_type 8, 14, 3
	note F_, 2
	note B_, 2
	note A_, 2
	note_type 12, 14, 3
	octave 5
	note D_, 2
	note E_, 2
	octave 4
	note B_, 1
	note_type 6, 14, 3
	note B_, 1
	note A_, 1
	note_type 12, 14, 3
	note F#, 3
	note F#, 1
	note F_, 1
	note_type 6, 14, 3
	note E_, 1
	note D_, 1
	note_type 9, 14, 3
	note F_, 2
	note D_, 2
	note_type 6, 14, 3
	note E_, 1
	note F_, 1
	note F#, 3
	note F_, 3
	note E_, 1
	note D_, 1
	note_type 12, 14, 3
	note A_, 2
	note D_, 2
	note F#, 2
	note F_, 2
	note A_, 1
	note D_, 1
	note F_, 1
	note D_, 1
	note A_, 4
	octave 8
	sound_loop 0, .mainLoop

.sub1:
	note B_, 1
	note_type 6, 14, 3
	note B_, 1
	octave 4
	note D_, 1
	note_type 12, 14, 3
	note F#, 3
	note F_, 1
	note E_, 1
	note_type 6, 14, 3
	note D_, 1
	octave 3
	note B_, 1
	note A_, 2
	note A_, 1
	sound_ret

Music_FunkyGames_Ch2:
	note_type 12, 15, 8
.mainLoop:
	octave 3
	sound_call .sub1
	volume_envelope 15, 2
	vibrato 8, 2, 4
	duty_cycle 1
	note F_, 2
	note_type 6, 15, 2
	note F#, 1
	note G_, 1
	note A_, 1
	note A#, 1
	note_type 12, 15, 8
	sound_call .sub1
	note_type 12, 15, 2
	vibrato 8, 2, 4
	duty_cycle 1
	note F_, 2
	note E_, 1
	note D_, 1
.loop1:
	sound_call .sub2
	sound_call .sub2
	note_type 12, 15, 2
	octave 4
.loop2:
	octave 3
	volume_envelope 10, 2
	note F#, 2
	note D_, 2
	octave 2
	note F#, 2
	octave 4
	sound_loop 2, .loop2
	octave 3
	volume_envelope 10, 2
	note F#, 2
	note D_, 2
	octave 2
	note F_, 2
	octave 3
	note F_, 2
	octave 2
	note B_, 2
	note F_, 2
	octave 3
	note E_, 2
	octave 2
	note A_, 2
	note F_, 2
	octave 3
	note E_, 2
	octave 4
.loop3:
	octave 3
	volume_envelope 10, 2
	note F#, 1
	note F#, 1
	octave 4
	sound_loop 4, .loop3
.loop7:
	octave 3
	volume_envelope 10, 2
	note D_, 1
	note D_, 1
	octave 4
	sound_loop 4, .loop7
	octave 2
	volume_envelope 10, 2
	note F_, 2
	octave 3
	note F_, 2
	octave 2
	note B_, 2
	note F_, 2
	note F#, 2
	note A_, 2
	octave 3
	note C_, 4
	octave 8
	sound_loop 0, .mainLoop

.sub1:
	volume_envelope 15, 2
	vibrato 8, 2, 4
	duty_cycle 1
	octave 3
	note B_, 1
	octave 4
	note D_, 2
	octave 3
	note B_, 1
	octave 4
	note D_, 2
	octave 3
	note B_, 1
	octave 4
	note F#, 2
	note F_, 2
	note E_, 2
	note D_, 1
	octave 3
	note B_, 1
	note A_, 1
	note B_, 1
	octave 4
	note D_, 2
	octave 3
	note B_, 1
	octave 4
	note D_, 2
	note_type 6, 15, 2
	note D#, 1
	note E_, 1
	note F_, 1
	note F#, 1
	note_type 12, 15, 2
	note B_, 2
	note A_, 2
	note F#, 2
	note F_, 1
	note E_, 1
	note F#, 1
	note A_, 2
	note E_, 1
	note F#, 2
	note F_, 1
	note B_, 2
	note F#, 1
	octave 5
	note D_, 2
	octave 4
	note B_, 1
	note A_, 1
	note F#, 1
	note F_, 1
	note D_, 2
	note E_, 1
	octave 3
	note B_, 2
	octave 4
	note D_, 1
	octave 3
	note A_, 2
	note B_, 1
	note F#, 2
	note A_, 1
	sound_ret

.sub2:
.loop4:
	octave 2
	volume_envelope 10, 2
	note F#, 2
	octave 3
	note D_, 2
	sound_loop 3, .loop4
	octave 2
	volume_envelope 10, 2
	note F#, 1
	octave 3
	note D_, 1
	octave 2
	note F#, 1
	octave 3
	note D_, 1
.loop5:
	octave 2
	volume_envelope 10, 2
	note F_, 2
	note B_, 2
	octave 3
	sound_loop 2, .loop5
	octave 2
	volume_envelope 10, 2
	note E_, 2
	note A_, 2
	octave 3
.loop6:
	octave 2
	volume_envelope 10, 2
	note E_, 1
	note A_, 1
	octave 3
	sound_loop 2, .loop6
	sound_ret

Music_FunkyGames_Ch3:
	note_type 12, 1, 0
.mainLoop:
	vibrato 8, 2, 2
	octave 1
	volume_envelope 1, 4
.loop1:
	volume_envelope 1, 6
	octave 1
	note F#, 1
	octave 2
	note D_, 1
	note A_, 1
	note E_, 2
	note F_, 1
	note F#, 2
	octave 3
	note D_, 1
	octave 2
	note B_, 2
	note A_, 1
	note F#, 1
	note F_, 1
	note E_, 1
	note D_, 1
	octave 1
	note B_, 1
	octave 2
	note D_, 1
	note A_, 1
	note E_, 2
	note F_, 1
	note F#, 2
	octave 3
	note D_, 1
	octave 2
	note B_, 2
	note A_, 1
	note F#, 1
	note_type 12, 1, 6
	octave 3
	note E_, 1
	note F_, 1
	note E_, 1
	octave 2
	note F#, 1
	note F_, 1
	note D_, 1
	note E_, 2
	note F_, 1
	note F#, 2
	octave 3
	note D_, 1
	octave 2
	note B_, 2
	note A_, 1
	note F#, 1
	note F_, 1
	note E_, 1
	note D_, 1
	octave 1
	note B_, 1
	octave 2
	note D_, 1
	note A_, 1
	note E_, 2
	note F#, 1
	note F_, 1
	note D_, 1
	octave 1
	note B_, 2
	octave 2
	note D_, 1
	octave 1
	note B_, 1
	note A_, 2
	note F#, 1
	note A_, 1
	sound_loop 2, .loop1
	octave 1
.loop2:
.loop4:
	sound_call .sub3
.loop6:
	sound_call .sub1
	note_type 12, 1, 4
	octave 1
	sound_call .sub2
	note_type 12, 1, 6
	octave 1
	note A_, 1
	note B_, 1
	note A_, 2
	note F#, 2
	note F_, 2
	note E_, 1
	note F_, 1
	sound_call .sub3
	note_type 12, 1, 4
	octave 1
	sound_call .sub1
	note_type 12, 1, 6
	octave 1
	note F_, 2
	note B_, 2
	note F_, 2
	note A_, 1
	note B_, 1
	note A_, 2
	octave 2
	note E_, 2
	octave 1
	note A_, 2
	octave 2
	note E_, 1
	note F_, 1
	octave 8
	sound_loop 0, .mainLoop

.sub1:
.loop3:
	volume_envelope 1, 6
	note F#, 2
	octave 2
	note D_, 2
	octave 1
	note F#, 2
	octave 2
	note D_, 1
	octave 1
	note B_, 1
	sound_loop 2, .loop3
	sound_ret

.sub2:
	volume_envelope 1, 6
	note F_, 2
	note B_, 2
	note F_, 2
	sound_ret

.sub3:
.loop5:
	volume_envelope 1, 6
	note F#, 2
	octave 2
	note D_, 2
	octave 1
	note F#, 2
	octave 2
	note D_, 1
	octave 1
	note B_, 1
	sound_loop 2, .loop5
	octave 1
	volume_envelope 1, 6
	note F_, 2
	note B_, 2
	note F_, 2
	note B_, 1
	note A_, 1
	note E_, 2
	note A_, 2
	note E_, 2
	note A_, 1
	note B_, 1
	sound_ret

Music_FunkyGames_Ch4:
	toggle_noise 0
	drum_speed 12
.mainLoop:
	octave 7
	toggle_noise
	toggle_noise 3
.loop1:
	octave 6
	drum_note 11, 1
	drum_note 3, 1
	drum_note 7, 1
	drum_note 11, 1
	drum_note 3, 2
	drum_note 11, 1
	drum_note 7, 1
	drum_note 11, 2
	drum_note 7, 1
	drum_note 11, 1
	drum_note 3, 2
	drum_note 7, 2
	drum_note 11, 1
	drum_note 3, 1
	drum_note 7, 1
	drum_note 11, 1
	drum_note 3, 2
	drum_note 11, 1
	rest 1
	drum_note 11, 2
	drum_note 7, 1
	drum_speed 12
	drum_note 11, 1
	drum_note 3, 1
	drum_note 3, 1
	drum_note 3, 1
	drum_speed 6
	drum_note 3, 1
	drum_note 3, 1
	drum_speed 12
	octave 7
	sound_loop 4, .loop1
	octave 7
.loop2:
	sound_call .sub1
	drum_speed 12
	sound_call .sub1
	drum_speed 12
	octave 7
	sound_call .sub1
	drum_speed 12
	octave 7
.loop4:
	octave 6
	drum_note 11, 1
	drum_note 7, 1
	drum_note 3, 1
	drum_note 7, 1
	octave 7
	sound_loop 7, .loop4
	octave 6
	drum_note 3, 1
	drum_note 3, 1
	drum_speed 6
	drum_note 3, 1
	drum_note 3, 1
	drum_note 3, 1
	drum_note 3, 1
	octave 8
	drum_speed 12
	sound_loop 0, .mainLoop

.sub1:
.loop3:
	octave 6
	drum_note 11, 1
	drum_note 7, 1
	drum_note 3, 1
	drum_note 7, 1
	octave 7
	sound_loop 7, .loop3
	octave 6
	drum_note 11, 1
	drum_note 7, 1
	drum_note 3, 1
	drum_speed 6
	drum_note 3, 1
	drum_note 3, 1
	octave 7
	sound_ret
