Music_HyperSpeed:
	channel_count 4
	channel 1, Music_HyperSpeed_Ch1
	channel 2, Music_HyperSpeed_Ch2
	channel 3, Music_HyperSpeed_Ch3
	channel 4, Music_HyperSpeed_Ch4

Music_HyperSpeed_Ch1:
	volume 7, 7
	note_type 12, 3, 4
	tempo 128
	octave 4
	vibrato 0, 1, 3
	duty_cycle 2
	note D_, 4
	octave 3
	note G_, 4
	octave 4
	note D_, 4
	octave 3
	note G_, 4
	octave 4
	note D_, 4
	octave 3
	note G_, 4
	octave 4
	note D_, 4
	octave 3
	note G_, 4
	octave 4
	note D_, 2
	octave 3
	note G_, 2
	octave 4
	note D_, 2
	octave 3
	note G_, 2
	octave 4
	note D_, 2
	octave 3
	note G_, 2
	octave 4
	note D_, 2
	octave 3
	note G_, 2
	octave 4
	note D_, 2
	octave 3
	note G_, 2
	octave 4
	note D_, 2
	octave 3
	note G_, 2
	octave 4
	note D_, 2
	octave 3
	note G_, 2
	octave 4
	note D_, 2
	octave 3
	note G_, 2
	octave 4
	note C_, 2
	octave 3
	note F_, 2
	octave 4
	note C_, 2
	octave 3
	note F_, 2
	octave 4
	note C_, 2
	octave 3
	note F_, 2
	octave 4
	note C_, 2
	octave 3
	note F_, 2
	octave 4
	note C_, 2
	octave 3
	note F_, 2
	octave 4
	note C_, 2
	octave 3
	note F_, 2
	octave 4
	note C_, 2
	octave 3
	note F_, 2
	octave 4
	note C_, 2
	octave 3
	note F_, 2
	volume_envelope 7, 4
	note G_, 1
	note A_, 1
	note G_, 1
	note F_, 1
	volume_envelope 8, 4
	note D_, 1
	note E_, 1
	note F_, 1
	note G_, 1
	volume_envelope 9, 4
	note A_, 1
	note G_, 1
	note A_, 1
	note B_, 1
	octave 4
	volume_envelope 10, 4
	note C_, 1
	octave 3
	note B_, 1
	note A_, 1
	note B_, 1
	octave 4
	volume_envelope 11, 4
	note C_, 1
	note D_, 1
	note C_, 1
	octave 3
	note B_, 1
	octave 4
	volume_envelope 12, 4
	note C_, 1
	note D_, 1
	note E_, 1
	note D_, 1
	volume_envelope 13, 4
	note C_, 1
	note D_, 1
	note E_, 1
	note D_, 1
	volume_envelope 14, 4
	note C_, 1
	octave 3
	note B_, 1
	note A_, 1
	note G_, 1
	note_type 12, 12, 5
.mainLoop:
	duty_cycle 3
	vibrato 0, 1, 3
	volume_envelope 7, 5
.loop1:
	volume_envelope 7, 4
	duty_cycle 2
	note B_, 2
	note G_, 2
	note G_, 2
	note A_, 1
	note A#, 2
	rest 1
	octave 4
	note G_, 2
	note D_, 2
	note D#, 2
	note D_, 2
	note F_, 2
	note F_, 2
	note D#, 1
	note D_, 2
	rest 1
	octave 3
	note A#, 2
	octave 4
	note C_, 2
	octave 3
	note A#, 2
	note A_, 2
	note G_, 2
	note G_, 2
	note A_, 1
	note A#, 2
	note G_, 1
	note G_, 2
	octave 4
	note D_, 2
	note D#, 1
	note D_, 1
	note D_, 2
	note D_, 2
	note F_, 2
	note D#, 1
	note D_, 1
	note C_, 2
	note C_, 2
	note C_, 2
	octave 3
	note A#, 1
	note A_, 1
	note G_, 2
	note F_, 2
	note F_, 2
	note G_, 1
	note A_, 2
	rest 1
	note F_, 2
	octave 4
	note C_, 2
	note D_, 1
	note C_, 1
	note D_, 2
	note D#, 2
	note D#, 2
	note D_, 1
	note C_, 2
	rest 1
	octave 3
	note A_, 2
	note A#, 2
	note A_, 1
	note G_, 1
	note F_, 2
	note G_, 2
	note G_, 2
	note A_, 1
	note A#, 2
	rest 1
	note G_, 2
	octave 4
	note D_, 2
	note D#, 1
	note D_, 1
	note D#, 2
	note F_, 2
	note F_, 2
	note D#, 1
	note D_, 2
	rest 1
	octave 3
	note A#, 2
	octave 4
	note C_, 2
	octave 3
	note A#, 2
	sound_loop 2, .loop1
	octave 4
	vibrato 0, 3, 1
	volume_envelope 15, 4
	duty_cycle 2
	note G_, 6
	octave 3
	volume_envelope 7, 4
	note A_, 1
	note A#, 2
	rest 1
	note G_, 2
	octave 4
	volume_envelope 15, 4
	note A_, 1
	note A#, 1
	note A_, 1
	note G_, 1
	note A#, 6
	volume_envelope 7, 4
	note D#, 1
	note D_, 2
	octave 3
	rest 1
	note A#, 2
	octave 5
	volume_envelope 15, 4
	note D_, 1
	note C_, 1
	octave 4
	note A#, 1
	note A_, 1
	note G_, 6
	octave 3
	volume_envelope 7, 4
	note A_, 1
	note A#, 2
	rest 1
	note G_, 2
	octave 4
	volume_envelope 15, 4
	note A_, 1
	note A#, 1
	octave 5
	note C_, 1
	note D_, 1
	note C_, 6
	octave 4
	volume_envelope 7, 4
	note D#, 1
	note D_, 2
	octave 3
	rest 1
	note A#, 2
	octave 5
	volume_envelope 15, 4
	note D_, 1
	note D#, 1
	note G_, 1
	note C_, 1
	octave 4
	note F_, 6
	octave 3
	volume_envelope 7, 4
	note G_, 1
	note A_, 2
	rest 1
	note F_, 2
	octave 4
	volume_envelope 15, 4
	note G_, 1
	note A_, 1
	note G_, 1
	note F_, 1
	note A_, 6
	volume_envelope 7, 4
	note D_, 1
	note C_, 2
	octave 3
	rest 1
	note A_, 2
	octave 5
	volume_envelope 15, 4
	note C_, 1
	octave 4
	note A#, 1
	note A_, 1
	note F_, 1
	note G_, 6
	octave 3
	volume_envelope 7, 4
	note A_, 1
	note A#, 2
	rest 1
	note G_, 2
	octave 4
	volume_envelope 15, 4
	note G_, 1
	note A_, 1
	note A#, 1
	note F_, 1
	note G_, 4
	volume_envelope 7, 4
	note F_, 2
	note D#, 1
	note D_, 1
	volume_envelope 15, 4
	note A#, 2
	note A_, 1
	note G_, 1
	note F_, 1
	note D#, 1
	note G_, 1
	note A_, 1
	sound_call .sub3
	note_type 12, 15, 5
	sound_call .sub2
	octave 4
	note_type 12, 15, 4
	duty_cycle 2
	note G_, 2
	note A_, 2
	note A_, 2
	note G_, 2
	note G_, 2
	volume_envelope 7, 4
	note G_, 2
	note D_, 2
	note D#, 2
	volume_envelope 10, 4
	note F_, 2
	note G_, 2
	note G_, 2
	note F_, 2
	note F_, 2
	octave 3
	volume_envelope 7, 4
	note A#, 2
	octave 4
	note C_, 2
	octave 3
	note A#, 2
	octave 4
	volume_envelope 12, 4
	note D#, 2
	note F_, 2
	note F_, 2
	note D_, 2
	note D_, 2
	octave 3
	volume_envelope 7, 4
	note G_, 2
	octave 4
	note D_, 2
	note D#, 1
	note D_, 1
	note D_, 2
	note D_, 2
	note F_, 2
	note D#, 1
	note D_, 1
	note C_, 2
	note C_, 2
	note C_, 2
	octave 3
	note A#, 1
	note A_, 1
	volume_envelope 12, 4
	note A#, 2
	octave 4
	note C_, 2
	note C_, 2
	octave 3
	note A#, 2
	note A#, 2
	volume_envelope 7, 4
	note F_, 2
	octave 4
	note C_, 2
	note D_, 1
	note C_, 1
	volume_envelope 12, 4
	note C_, 2
	note D_, 2
	note D_, 2
	note C_, 2
	note C_, 2
	octave 3
	volume_envelope 7, 4
	note A_, 2
	note A#, 2
	note A_, 1
	note G_, 1
	octave 4
	volume_envelope 12, 4
	note D_, 2
	note D#, 2
	note D#, 2
	note D_, 2
	note D_, 2
	octave 3
	volume_envelope 7, 4
	note G_, 2
	octave 4
	note D_, 2
	note D#, 1
	note D_, 1
	volume_envelope 12, 4
	note D_, 2
	note D#, 2
	note D#, 2
	note D_, 2
	note D_, 2
	octave 3
	volume_envelope 7, 4
	note A#, 2
	octave 4
	note C_, 2
	octave 3
	note A#, 2
	octave 4
	note_type 12, 15, 5
	sound_call .sub3
	octave 4
	note_type 12, 15, 5
	sound_call .sub3
	octave 4
	note_type 12, 15, 5
	sound_loop 0, .mainLoop

.sub2:
	volume_envelope 15, 4
	duty_cycle 2
	note G_, 2
	note A_, 2
	note A_, 2
	note G_, 2
	note G_, 2
	volume_envelope 7, 4
	note G_, 2
	note D_, 2
	note D#, 2
	volume_envelope 10, 4
	note F_, 2
	note G_, 2
	note G_, 2
	note F_, 2
	note F_, 2
	octave 3
	volume_envelope 7, 4
	note A#, 2
	octave 4
	note C_, 2
	octave 3
	note A#, 2
	octave 4
	volume_envelope 12, 4
	note D#, 2
	note F_, 2
	note F_, 2
	note D_, 2
	note D_, 2
	octave 3
	volume_envelope 7, 4
	note G_, 2
	octave 4
	note D_, 2
	note D#, 1
	note D_, 1
	note D_, 2
	note D_, 2
	note F_, 2
	note D#, 1
	note D_, 1
	note C_, 2
	note C_, 2
	note C_, 2
	octave 3
	note A#, 1
	note A_, 1
	volume_envelope 12, 4
	note A#, 2
	octave 4
	note C_, 2
	note C_, 2
	octave 3
	note A#, 2
	note A#, 2
	volume_envelope 7, 4
	note F_, 2
	octave 4
	note C_, 2
	note D_, 1
	note C_, 1
	volume_envelope 12, 4
	note C_, 2
	note D_, 2
	note D_, 2
	note C_, 2
	note C_, 2
	octave 3
	volume_envelope 7, 4
	note A_, 2
	note A#, 2
	note A_, 1
	note G_, 1
	octave 4
	volume_envelope 12, 4
	note D_, 2
	note D#, 2
	note D#, 2
	note D_, 2
	note D_, 2
	octave 3
	volume_envelope 7, 4
	note G_, 2
	octave 4
	note D_, 2
	note D#, 1
	note D_, 1
	volume_envelope 12, 4
	note D_, 2
	note D#, 2
	note D#, 2
	note D_, 2
	note D_, 2
	octave 3
	volume_envelope 7, 4
	note A#, 2
	octave 4
	note C_, 2
	octave 3
	note A#, 2
	sound_ret

.sub3:
	volume_envelope 15, 4
	duty_cycle 2
	note G_, 6
	octave 3
	volume_envelope 7, 4
	note A_, 1
	note A#, 2
	rest 1
	note G_, 2
	octave 4
	volume_envelope 15, 4
	note A_, 1
	note A#, 1
	note A_, 1
	note G_, 1
	note A#, 6
	volume_envelope 7, 4
	note D#, 1
	note D_, 2
	octave 3
	rest 1
	note A#, 2
	octave 5
	volume_envelope 15, 4
	note D_, 1
	note C_, 1
	octave 4
	note A#, 1
	note A_, 1
	note G_, 6
	octave 3
	volume_envelope 7, 4
	note A_, 1
	note A#, 2
	rest 1
	note G_, 2
	octave 4
	volume_envelope 15, 4
	note A_, 1
	note A#, 1
	octave 5
	note C_, 1
	note D_, 1
	note C_, 6
	octave 4
	volume_envelope 7, 4
	note D#, 1
	note D_, 2
	octave 3
	rest 1
	note A#, 2
	octave 5
	volume_envelope 15, 4
	note D_, 1
	note D#, 1
	note G_, 1
	note C_, 1
	octave 4
	note F_, 6
	octave 3
	volume_envelope 7, 4
	note G_, 1
	note A_, 2
	rest 1
	note F_, 2
	octave 4
	volume_envelope 15, 4
	note G_, 1
	note A_, 1
	note G_, 1
	note F_, 1
	note A_, 6
	volume_envelope 7, 4
	note D_, 1
	note C_, 2
	octave 3
	rest 1
	note A_, 2
	octave 5
	volume_envelope 15, 4
	note C_, 1
	octave 4
	note A#, 1
	note A_, 1
	note F_, 1
	note G_, 6
	octave 3
	volume_envelope 7, 4
	note A_, 1
	note A#, 2
	rest 1
	note G_, 2
	octave 4
	volume_envelope 15, 4
	note G_, 1
	note A_, 1
	note A#, 1
	note F_, 1
	note G_, 4
	volume_envelope 7, 4
	note F_, 2
	note D#, 1
	note D_, 1
	volume_envelope 15, 4
	note A#, 2
	note A_, 1
	note G_, 1
	note F_, 1
	note D#, 1
	note G_, 1
	note A_, 1
	sound_ret

Music_HyperSpeed_Ch2:
	note_type 12, 6, 1
	octave 4
	duty_cycle 3
	vibrato 18, 2, 3
	note G_, 4
	octave 5
	note D_, 4
	octave 4
	note G_, 4
	octave 5
	note D_, 4
	octave 4
	note G_, 4
	octave 5
	note D_, 4
	octave 4
	note G_, 4
	octave 5
	note D_, 4
	octave 4
	note G_, 2
	octave 5
	note D_, 2
	octave 4
	note G_, 2
	octave 5
	note D_, 2
	octave 4
	note G_, 2
	octave 5
	note D_, 2
	octave 4
	note G_, 2
	octave 5
	note D_, 2
	octave 4
	note G_, 2
	octave 5
	note D_, 2
	octave 4
	note G_, 2
	octave 5
	note D_, 2
	octave 4
	note G_, 2
	octave 5
	note D_, 2
	octave 4
	note G_, 2
	octave 5
	note D_, 2
	octave 4
	note F_, 2
	octave 5
	note C_, 2
	octave 4
	note F_, 2
	octave 5
	note C_, 2
	octave 4
	note F_, 2
	octave 5
	note C_, 2
	octave 4
	note F_, 2
	octave 5
	note C_, 2
	octave 4
	note G_, 1
	note A_, 1
	note G_, 1
	note F_, 1
	note D_, 1
	note E_, 1
	note F_, 1
	note G_, 1
	note A_, 1
	note G_, 1
	note A_, 1
	note B_, 1
	octave 5
	note C_, 1
	octave 4
	note B_, 1
	note A_, 1
	note B_, 1
	octave 5
	note C_, 1
	note D_, 1
	note C_, 1
	octave 4
	note B_, 1
	octave 5
	note C_, 1
	note D_, 1
	note E_, 1
	note D_, 1
	note C_, 1
	note D_, 1
	note E_, 1
	note D_, 1
	note C_, 1
	octave 4
	note B_, 1
	note A_, 1
	note G_, 1
	note G_, 1
	note G_, 1
	note G_, 1
	note G_, 1
	note G_, 1
	note G_, 1
	note G_, 1
	note G_, 1
	note G_, 1
	note G_, 1
	note G_, 1
	note G_, 1
	note G_, 1
	note G_, 1
	note G_, 1
	note G_, 1
.mainLoop:
	octave 3
.loop2:
	sound_call .sub1
	sound_loop 2, .loop2
	note_type 12, 15, 8
	octave 4
.loop1:
	octave 3
	duty_cycle 3
	vibrato 0, 1, 1
.loop3:
	sound_call .sub1
	sound_loop 6, .loop3
	note_type 12, 15, 8
	sound_loop 0, .mainLoop

.sub1:
	duty_cycle 3
	volume_envelope 12, 8
	vibrato 18, 2, 3
	note G_, 2
	note G_, 2
	note_type 12, 12, 8
	note A_, 2
	note A#, 1
	note G_, 2
	note G_, 1
	octave 4
	note D_, 2
	note D#, 2
	note D_, 2
	note F_, 2
	note F_, 2
	note D#, 2
	note D_, 1
	octave 3
	note A#, 2
	note A#, 1
	octave 4
	note C_, 2
	octave 3
	note A#, 2
	note A_, 2
	note G_, 2
	note G_, 2
	note A_, 2
	note A#, 1
	note G_, 2
	note G_, 1
	octave 4
	note D_, 2
	note D#, 2
	note D_, 1
	note D#, 1
	note F_, 2
	note F_, 2
	note D#, 2
	note D_, 1
	octave 3
	note A#, 2
	note A#, 1
	octave 4
	note C_, 2
	octave 3
	note A#, 2
	note A_, 1
	note G_, 1
	note F_, 2
	note F_, 2
	note G_, 2
	note A_, 1
	note F_, 2
	note F_, 1
	octave 4
	note C_, 2
	note D_, 2
	note C_, 1
	note D_, 1
	note D#, 2
	note D#, 2
	note D_, 2
	note C_, 1
	octave 3
	note A_, 2
	note A_, 1
	note A#, 2
	note A_, 2
	note G_, 1
	note F_, 1
	note G_, 2
	note G_, 2
	note A_, 2
	note A#, 1
	note G_, 2
	note G_, 1
	octave 4
	note D_, 2
	note D#, 2
	note D_, 1
	note D#, 1
	note F_, 2
	note F_, 2
	note D#, 2
	note D_, 1
	octave 3
	note A#, 2
	note A#, 1
	octave 4
	note C_, 2
	octave 3
	note A#, 2
	note A#, 1
	note A_, 1
	sound_ret

Music_HyperSpeed_Ch3:
	note_type 12, 1, 0
	octave 2
	sound_call .sub1
	note_type 12, 1, 0
.mainLoop:
	octave 3
.loop1:
	octave 2
	volume_envelope 1, 4
	vibrato 0, 2, 1
	sound_call .sub2
	vibrato 5, 2, 6
	volume_envelope 2, 5
	note G_, 2
	note G_, 1
	note G_, 1
	octave 3
	note D_, 2
	octave 2
	note G_, 2
	octave 3
	note D_, 4
	octave 2
	note G_, 2
	octave 3
	note D_, 2
	octave 2
	note G_, 2
	note G_, 1
	note G_, 1
	octave 3
	note D_, 2
	octave 2
	note G_, 2
	octave 3
	note D_, 2
	note C_, 2
	octave 2
	note A#, 2
	note A_, 2
	note G_, 2
	note G_, 1
	note G_, 1
	octave 3
	note D_, 2
	octave 2
	note G_, 2
	octave 3
	note D_, 4
	octave 2
	note G_, 2
	octave 3
	note D_, 2
	octave 2
	note G_, 2
	note G_, 1
	note G_, 1
	octave 3
	note D_, 2
	octave 2
	note G_, 2
	octave 3
	note D_, 2
	note C_, 2
	octave 2
	note A#, 2
	note A_, 2
	note F_, 2
	note F_, 1
	note F_, 1
	octave 3
	note C_, 2
	octave 2
	note F_, 2
	octave 3
	note C_, 4
	octave 2
	note F_, 2
	octave 3
	note C_, 2
	octave 2
	note F_, 2
	note F_, 1
	note F_, 1
	octave 3
	note C_, 2
	octave 2
	note F_, 2
	octave 3
	note C_, 2
	octave 2
	note A#, 2
	note A_, 2
	note G_, 2
	note G_, 2
	note G_, 1
	note G_, 1
	octave 3
	note D_, 2
	octave 2
	note G_, 2
	octave 3
	note D_, 2
	note D_, 2
	octave 2
	note G_, 2
	octave 3
	note D_, 2
	octave 2
	note G_, 2
	note G_, 1
	note G_, 1
	octave 3
	note D_, 2
	octave 2
	note G_, 2
	octave 3
	note C_, 2
	note D_, 2
	note C_, 2
	octave 2
	note A#, 1
	note A_, 1
	note G_, 2
	note G_, 1
	note G_, 1
	octave 3
	note D_, 2
	octave 2
	note G_, 2
	octave 3
	note D_, 4
	octave 2
	note G_, 2
	octave 3
	note D_, 2
	octave 2
	note G_, 2
	note G_, 1
	note G_, 1
	octave 3
	note D_, 2
	octave 2
	note G_, 2
	octave 3
	note D_, 2
	note C_, 2
	octave 2
	note A#, 2
	note A_, 2
	note G_, 2
	note G_, 1
	note G_, 1
	octave 3
	note D_, 2
	octave 2
	note G_, 2
	octave 3
	note D_, 4
	octave 2
	note G_, 2
	octave 3
	note D_, 2
	octave 2
	note G_, 2
	note G_, 1
	note G_, 1
	octave 3
	note D_, 2
	octave 2
	note G_, 2
	octave 3
	note D_, 2
	note C_, 2
	octave 2
	note A#, 2
	note A_, 2
	note F_, 2
	note F_, 1
	note F_, 1
	octave 3
	note C_, 2
	octave 2
	note F_, 2
	octave 3
	note C_, 4
	octave 2
	note F_, 2
	octave 3
	note C_, 2
	octave 2
	note F_, 2
	note F_, 1
	note F_, 1
	octave 3
	note C_, 2
	octave 2
	note F_, 2
	octave 3
	note C_, 2
	octave 2
	note A#, 2
	note A_, 2
	note G_, 2
	note G_, 2
	note G_, 1
	note G_, 1
	octave 3
	note D_, 2
	octave 2
	note G_, 2
	octave 3
	note D_, 2
	note D_, 2
	octave 2
	note G_, 2
	octave 3
	note D_, 2
	octave 2
	note G_, 2
	note G_, 1
	note G_, 1
	octave 3
	note D_, 2
	octave 2
	note G_, 2
	octave 3
	note C_, 2
	note D_, 2
	note C_, 2
	octave 2
	note A#, 1
	note A_, 1
.loop2:
	vibrato 5, 2, 6
	volume_envelope 2, 5
	note G_, 2
	note G_, 1
	note G_, 1
	octave 3
	note D_, 2
	octave 2
	note G_, 2
	octave 3
	note D_, 4
	octave 2
	note G_, 2
	octave 3
	note D_, 2
	octave 2
	note G_, 2
	note G_, 1
	note G_, 1
	octave 3
	note D_, 2
	octave 2
	note G_, 2
	octave 3
	note D_, 2
	note C_, 2
	octave 2
	note A#, 2
	note A_, 2
	note G_, 2
	note G_, 1
	note G_, 1
	octave 3
	note D_, 2
	octave 2
	note G_, 2
	octave 3
	note D_, 4
	octave 2
	note G_, 2
	octave 3
	note D_, 2
	octave 2
	note G_, 2
	note G_, 1
	note G_, 1
	octave 3
	note D_, 2
	octave 2
	note G_, 2
	octave 3
	note D_, 2
	note C_, 2
	octave 2
	note A#, 2
	note A_, 2
	note F_, 2
	note F_, 1
	note F_, 1
	octave 3
	note C_, 2
	octave 2
	note F_, 2
	octave 3
	note C_, 4
	octave 2
	note F_, 2
	octave 3
	note C_, 2
	octave 2
	note F_, 2
	note F_, 1
	note F_, 1
	octave 3
	note C_, 2
	octave 2
	note F_, 2
	octave 3
	note C_, 2
	octave 2
	note A#, 2
	note A_, 2
	note G_, 2
	note G_, 2
	note G_, 1
	note G_, 1
	octave 3
	note D_, 2
	octave 2
	note G_, 2
	octave 3
	note D_, 2
	note D_, 2
	octave 2
	note G_, 2
	octave 3
	note D_, 2
	octave 2
	note G_, 2
	note G_, 1
	note G_, 1
	octave 3
	note D_, 2
	octave 2
	note G_, 2
	octave 3
	note C_, 2
	note D_, 2
	note C_, 2
	octave 2
	note A#, 1
	note A_, 1
	sound_loop 5, .loop2
	note_type 12, 1, 4
	sound_loop 0, .mainLoop

.sub1:
	vibrato 5, 2, 6
	volume_envelope 2, 5
	note G_, 2
	note G_, 1
	note G_, 1
	octave 3
	note D_, 2
	octave 2
	note_type 12, 2, 5
	note G_, 2
	octave 3
	note D_, 4
	octave 2
	note G_, 2
	octave 3
	note D_, 2
	octave 2
	note G_, 2
	note G_, 1
	note G_, 1
	octave 3
	note D_, 2
	octave 2
	note G_, 2
	octave 3
	note D_, 2
	note C_, 2
	octave 2
	note A#, 2
	note A_, 2
	note G_, 2
	note G_, 1
	note G_, 1
	octave 3
	note D_, 2
	octave 2
	note G_, 2
	octave 3
	note D_, 4
	octave 2
	note G_, 2
	octave 3
	note D_, 2
	octave 2
	note G_, 2
	note G_, 1
	note G_, 1
	octave 3
	note D_, 2
	octave 2
	note G_, 2
	octave 3
	note D_, 2
	note C_, 2
	octave 2
	note A#, 2
	note A_, 2
	note F_, 2
	note F_, 1
	note F_, 1
	octave 3
	note C_, 2
	octave 2
	note F_, 2
	octave 3
	note C_, 4
	octave 2
	note F_, 2
	octave 3
	note C_, 2
	octave 2
	note F_, 2
	note F_, 1
	note F_, 1
	octave 3
	note C_, 2
	octave 2
	note F_, 2
	octave 3
	note C_, 2
	octave 2
	note A#, 2
	note A_, 2
	note G_, 2
	note G_, 2
	note G_, 1
	note G_, 1
	octave 3
	note D_, 2
	octave 2
	note G_, 2
	octave 3
	note D_, 2
	note D_, 2
	octave 2
	note G_, 2
	octave 3
	note D_, 2
	octave 2
	note G_, 2
	note G_, 1
	note G_, 1
	octave 3
	note D_, 2
	octave 2
	note G_, 2
	octave 3
	note C_, 2
	note D_, 2
	note C_, 2
	octave 2
	note A#, 1
	note A_, 1
	sound_ret

.sub2:
	vibrato 5, 2, 6
	volume_envelope 2, 5
	note G_, 2
	note G_, 1
	note G_, 1
	octave 3
	note D_, 2
	octave 2
	note_type 12, 2, 5
	note G_, 2
	octave 3
	note D_, 4
	octave 2
	note G_, 2
	octave 3
	note D_, 2
	octave 2
	note G_, 2
	note G_, 1
	note G_, 1
	octave 3
	note D_, 2
	octave 2
	note G_, 2
	octave 3
	note D_, 2
	note C_, 2
	octave 2
	note A#, 2
	note A_, 2
	note G_, 2
	note G_, 1
	note G_, 1
	octave 3
	note D_, 2
	octave 2
	note G_, 2
	octave 3
	note D_, 4
	octave 2
	note G_, 2
	octave 3
	note D_, 2
	octave 2
	note G_, 2
	note G_, 1
	note G_, 1
	octave 3
	note D_, 2
	octave 2
	note G_, 2
	octave 3
	note D_, 2
	note C_, 2
	octave 2
	note A#, 2
	note A_, 2
	note F_, 2
	note F_, 1
	note F_, 1
	octave 3
	note C_, 2
	octave 2
	note F_, 2
	octave 3
	note C_, 4
	octave 2
	note F_, 2
	octave 3
	note C_, 2
	octave 2
	note F_, 2
	note F_, 1
	note F_, 1
	octave 3
	note C_, 2
	octave 2
	note F_, 2
	octave 3
	note C_, 2
	octave 2
	note A#, 2
	note A_, 2
	note G_, 2
	note G_, 2
	note G_, 1
	note G_, 1
	octave 3
	note D_, 2
	octave 2
	note G_, 2
	octave 3
	note D_, 2
	note D_, 2
	octave 2
	note G_, 2
	octave 3
	note D_, 2
	octave 2
	note G_, 2
	note G_, 1
	note G_, 1
	octave 3
	note D_, 2
	octave 2
	note G_, 2
	octave 3
	note C_, 2
	note D_, 2
	note C_, 2
	octave 2
	note A#, 1
	note A_, 1
	sound_ret

Music_HyperSpeed_Ch4:
	toggle_noise 0
	drum_speed 12
	octave 6
	drum_note 8, 1
	rest 15
	drum_note 8, 1
	rest 15
	drum_note 8, 1
	rest 7
	drum_note 8, 1
	rest 7
	drum_note 8, 1
	rest 7
	drum_note 8, 1
	rest 1
	drum_note 8, 1
	rest 1
	drum_note 8, 1
	rest 1
	drum_note 8, 1
	rest 1
	drum_note 8, 1
	rest 3
	drum_note 8, 1
	rest 3
	drum_note 8, 1
	rest 3
	drum_note 8, 1
	rest 3
	drum_note 8, 1
	rest 3
	drum_note 8, 1
	rest 3
	drum_note 8, 1
	rest 1
	drum_note 8, 1
	rest 1
	drum_note 8, 1
	rest 2
	drum_note 8, 1
	drum_note 8, 1
	rest 3
	drum_note 8, 1
	rest 3
	drum_note 8, 1
	rest 3
	drum_note 8, 1
	rest 3
	drum_note 8, 1
	rest 1
	drum_note 8, 1
	rest 1
	drum_note 8, 1
	rest 1
	drum_note 8, 1
	rest 1
	drum_note 8, 1
	rest 1
	drum_note 8, 1
	rest 1
	drum_note 8, 1
	drum_note 8, 1
	drum_note 8, 1
	drum_note 8, 1
.mainLoop:
	octave 6
.loop1:
	drum_note 10, 1
	octave 7
	drum_note 6, 1
	drum_note 8, 1
	drum_note 1, 1
	drum_note 1, 1
	drum_note 6, 1
	drum_note 1, 1
	drum_note 8, 1
	drum_note 8, 1
	drum_note 1, 1
	drum_note 1, 1
	drum_note 6, 1
	drum_note 1, 1
	drum_note 6, 1
	drum_note 8, 1
	drum_note 1, 1
	drum_note 1, 1
	drum_note 6, 1
	drum_note 1, 1
	drum_note 8, 1
	drum_note 8, 1
	drum_note 1, 1
	drum_note 1, 1
	drum_note 6, 1
	drum_note 1, 1
	drum_note 6, 1
	drum_note 1, 1
	drum_note 6, 1
	drum_note 1, 1
	drum_note 6, 1
	drum_note 1, 1
	drum_note 1, 1
	octave 6
	sound_loop 20, .loop1
	rest 16
	rest 16
	rest 16
	rest 16
	rest 16
	rest 16
	octave 6
	drum_note 10, 1
	octave 7
	drum_note 6, 1
	drum_note 8, 1
	drum_note 1, 1
	drum_note 1, 1
	drum_note 6, 1
	drum_note 1, 1
	drum_note 8, 1
	drum_note 8, 1
	drum_note 1, 1
	drum_note 1, 1
	drum_note 6, 1
	drum_note 1, 1
	drum_note 6, 1
	drum_note 8, 1
	drum_note 1, 1
	drum_note 1, 1
	drum_note 6, 1
	drum_note 1, 1
	drum_note 8, 1
	drum_note 8, 1
	drum_note 1, 1
	drum_note 1, 1
	drum_note 6, 1
	drum_note 1, 1
	drum_note 6, 1
	drum_note 1, 1
	drum_note 6, 1
	drum_note 1, 1
	drum_note 6, 1
	drum_note 1, 1
	drum_note 1, 1
	octave 6
	drum_note 10, 1
	octave 7
	drum_note 6, 1
	drum_note 8, 1
	drum_note 1, 1
	drum_note 1, 1
	drum_note 6, 1
	drum_note 1, 1
	drum_note 8, 1
	drum_note 8, 1
	drum_note 1, 1
	drum_note 1, 1
	drum_note 6, 1
	drum_note 1, 1
	drum_note 6, 1
	drum_note 8, 1
	drum_note 1, 1
	drum_note 1, 1
	drum_note 6, 1
	drum_note 1, 1
	drum_note 8, 1
	drum_note 8, 1
	drum_note 1, 1
	drum_note 1, 1
	drum_note 6, 1
	drum_note 1, 1
	drum_note 6, 1
	drum_note 1, 1
	drum_note 6, 1
	drum_note 1, 1
	drum_note 6, 1
	drum_note 1, 1
	drum_note 1, 1
	octave 6
	drum_note 10, 1
	octave 7
	drum_note 6, 1
	drum_note 8, 1
	drum_note 1, 1
	drum_note 1, 1
	drum_note 6, 1
	drum_note 1, 1
	drum_note 8, 1
	drum_note 8, 1
	drum_note 1, 1
	drum_note 1, 1
	drum_note 6, 1
	drum_note 1, 1
	drum_note 6, 1
	drum_note 8, 1
	drum_note 1, 1
	drum_note 1, 1
	drum_note 6, 1
	drum_note 1, 1
	drum_note 8, 1
	drum_note 8, 1
	drum_note 1, 1
	drum_note 1, 1
	drum_note 6, 1
	drum_note 1, 1
	drum_note 6, 1
	drum_note 1, 1
	drum_note 6, 1
	drum_note 1, 1
	drum_note 6, 1
	drum_note 1, 1
	drum_note 1, 1
	octave 6
	drum_note 10, 1
	octave 7
	drum_note 6, 1
	drum_note 8, 1
	drum_note 1, 1
	drum_note 1, 1
	drum_note 6, 1
	drum_note 1, 1
	drum_note 8, 1
	drum_note 8, 1
	drum_note 1, 1
	drum_note 1, 1
	drum_note 6, 1
	drum_note 1, 1
	drum_note 6, 1
	drum_note 8, 1
	drum_note 1, 1
	drum_note 1, 1
	drum_note 6, 1
	drum_note 1, 1
	drum_note 8, 1
	drum_note 8, 1
	drum_note 1, 1
	drum_note 1, 1
	drum_note 6, 1
	drum_note 1, 1
	drum_note 6, 1
	drum_note 1, 1
	drum_note 6, 1
	drum_note 1, 1
	drum_note 6, 1
	drum_note 1, 1
	drum_note 1, 1
	octave 6
	drum_note 10, 1
	octave 7
	drum_note 6, 1
	drum_note 8, 1
	drum_note 1, 1
	drum_note 1, 1
	drum_note 6, 1
	drum_note 1, 1
	drum_note 8, 1
	drum_note 8, 1
	drum_note 1, 1
	drum_note 1, 1
	drum_note 6, 1
	drum_note 1, 1
	drum_note 6, 1
	drum_note 8, 1
	drum_note 1, 1
	drum_note 1, 1
	drum_note 6, 1
	drum_note 1, 1
	drum_note 8, 1
	drum_note 8, 1
	drum_note 1, 1
	drum_note 1, 1
	drum_note 6, 1
	drum_note 1, 1
	drum_note 6, 1
	drum_note 1, 1
	drum_note 6, 1
	drum_note 1, 1
	drum_note 6, 1
	drum_note 1, 1
	drum_note 1, 1
	octave 6
	drum_note 10, 1
	octave 7
	drum_note 6, 1
	drum_note 8, 1
	drum_note 1, 1
	drum_note 1, 1
	drum_note 6, 1
	drum_note 1, 1
	drum_note 8, 1
	drum_note 8, 1
	drum_note 1, 1
	drum_note 1, 1
	drum_note 6, 1
	drum_note 1, 1
	drum_note 6, 1
	drum_note 8, 1
	drum_note 1, 1
	drum_note 1, 1
	drum_note 6, 1
	drum_note 1, 1
	drum_note 8, 1
	drum_note 8, 1
	drum_note 1, 1
	drum_note 1, 1
	drum_note 6, 1
	drum_note 1, 1
	drum_note 6, 1
	drum_note 1, 1
	drum_note 6, 1
	drum_note 1, 1
	drum_note 6, 1
	drum_note 1, 1
	drum_note 1, 1
	octave 6
	drum_note 10, 1
	octave 7
	drum_note 6, 1
	drum_note 8, 1
	drum_note 1, 1
	drum_note 1, 1
	drum_note 6, 1
	drum_note 1, 1
	drum_note 8, 1
	drum_note 8, 1
	drum_note 1, 1
	drum_note 1, 1
	drum_note 6, 1
	drum_note 1, 1
	drum_note 6, 1
	drum_note 8, 1
	drum_note 1, 1
	drum_note 1, 1
	drum_note 6, 1
	drum_note 1, 1
	drum_note 8, 1
	drum_note 8, 1
	drum_note 1, 1
	drum_note 1, 1
	drum_note 6, 1
	drum_note 1, 1
	drum_note 6, 1
	drum_note 1, 1
	drum_note 6, 1
	drum_note 1, 1
	drum_note 6, 1
	drum_note 1, 1
	drum_note 1, 1
	octave 6
	drum_note 10, 1
	octave 7
	drum_note 6, 1
	drum_note 8, 1
	drum_note 1, 1
	drum_note 1, 1
	drum_note 6, 1
	drum_note 1, 1
	drum_note 8, 1
	drum_note 8, 1
	drum_note 1, 1
	drum_note 1, 1
	drum_note 6, 1
	drum_note 1, 1
	drum_note 6, 1
	drum_note 8, 1
	drum_note 1, 1
	drum_note 1, 1
	drum_note 6, 1
	drum_note 1, 1
	drum_note 8, 1
	drum_note 8, 1
	drum_note 1, 1
	drum_note 1, 1
	drum_note 6, 1
	drum_note 1, 1
	drum_note 6, 1
	drum_note 1, 1
	drum_note 6, 1
	drum_note 1, 1
	drum_note 6, 1
	drum_note 1, 1
	drum_note 1, 1
	octave 6
	drum_note 10, 1
	octave 7
	drum_note 6, 1
	drum_note 8, 1
	drum_note 1, 1
	drum_note 1, 1
	drum_note 6, 1
	drum_note 1, 1
	drum_note 8, 1
	drum_note 8, 1
	drum_note 1, 1
	drum_note 1, 1
	drum_note 6, 1
	drum_note 1, 1
	drum_note 6, 1
	drum_note 8, 1
	drum_note 1, 1
	drum_note 1, 1
	drum_note 6, 1
	drum_note 1, 1
	drum_note 8, 1
	drum_note 8, 1
	drum_note 1, 1
	drum_note 1, 1
	drum_note 6, 1
	drum_note 1, 1
	drum_note 6, 1
	drum_note 1, 1
	drum_note 6, 1
	drum_note 1, 1
	drum_note 6, 1
	drum_note 1, 1
	drum_note 1, 1
	octave 6
	drum_speed 12
	sound_loop 0, .mainLoop
