Music_NihonTime:					; Nihon Time theme
	channel_count 4					; Composed by LuciShrimp
	channel 1, Music_NihonTime_Ch1
	channel 2, Music_NihonTime_Ch2
	channel 3, Music_NihonTime_Ch3
	channel 4, Music_NihonTime_Ch4

Music_NihonTime_Ch1:
	tempo 256
	volume 7, 7
	note_type 12, 15, 8
.mainLoop:
	tempo 160
	duty_cycle 2
	volume_envelope 10, 4
	octave 3
	note G#, 4
	note F_, 2
	note D#, 2
	note F#, 4
	note F_, 4
	note A#, 4
	note G#, 2
	note F_, 2
	note F#, 4
	note D#, 4
	note G#, 4
	volume_envelope 7, 4
	note G#, 4
	volume_envelope 5, 4
	note G#, 4
	volume_envelope 3, 4
	note G#, 4
	volume_envelope 10, 4
	note F#, 4
	note F_, 2
	note F#, 2
	note G#, 4
	octave 2
	note B_, 1
	octave 3
	note D#, 1
	note F#, 1
	note G#, 1
	note A#, 4
	note G#, 2
	note F#, 2
	note F_, 4
	note C#, 4
	octave 4
	note C#, 4
	octave 3
	note B_, 2
	note G#, 2
	note A#, 2
	note G#, 2
	note F#, 2
	note D#, 2
	octave 4
	note C#, 4
	volume_envelope 7, 4
	note C#, 4
	volume_envelope 5, 4
	note C#, 4
	volume_envelope 3, 4
	note C#, 2
	octave 3
	volume_envelope 10, 4
	note G#, 1
	note A#, 1
	note B_, 4
	note A#, 2
	note B_, 2
	octave 4
	note C#, 1
	octave 3
	note B_, 1
	note G#, 1
	note F_, 1
	note C#, 1
	octave 2
	note A#, 1
	note F#, 1
	note D#, 1
	octave 3
	note C#, 2
	note D#, 4
	note F_, 4
	note G#, 4
	note F#, 2
	note C#, 1
	note D#, 1
	note F_, 1
	note F#, 1
	note A#, 1
	note B_, 1
	octave 4
	note C#, 1
	note D#, 1
	octave 3
	note A#, 1
	note B_, 1
	note F#, 1
	note G#, 1
	note F#, 4
	note G#, 4
	octave 4
	note C#, 4
	note F_, 4
	note D#, 1
	note C#, 1
	octave 3
	note B_, 1
	note A#, 1
	octave 4
	note C#, 4
	note F_, 2
	note F#, 2
	note D#, 2
	note F#, 1
	note F_, 1
	note D#, 1
	note C#, 1
	octave 3
	note B_, 1
	note G#, 1
	note F_, 2
	note F#, 4
	note G#, 4
	note B_, 4
	note A#, 2
	note F_, 1
	note F#, 1
	note G#, 1
	note A#, 1
	octave 4
	note C#, 1
	note D#, 1
	note F_, 1
	note F#, 1
	note C#, 1
	note D#, 1
	octave 3
	note A#, 1
	note B_, 1
	octave 4
	note D#, 4
	octave 3
	note G#, 4
	octave 4
	note C#, 1
	octave 3
	note B_, 2
	note A#, 1
	note G#, 2
	note F#, 1
	note D#, 2
	note F#, 1
	note G#, 2
	octave 4
	note D#, 4
	note C#, 2
	note D#, 2
	note F_, 1
	note D#, 1
	note C#, 1
	octave 3
	note B_, 1
	note A#, 1
	note G#, 1
	note F#, 1
	note F_, 1
	octave 8
	sound_loop 0, .mainLoop

Music_NihonTime_Ch2:
	note_type 12, 15, 8
.mainLoop:
	volume_envelope 11, 4
	vibrato 18, 2, 3
	duty_cycle 1
	octave 4
	note C#, 16
	note D#, 8
	octave 3
	note B_, 6
	note A#, 1
	note B_, 1
	octave 4
	note C#, 4
	volume_envelope 9, 4
	note C#, 4
	volume_envelope 6, 4
	note C#, 4
	volume_envelope 3, 4
	note C#, 4
	volume_envelope 11, 4
	note F#, 1
	note F_, 2
	note D#, 1
	note C#, 2
	octave 3
	note B_, 1
	note A#, 2
	note B_, 1
	octave 4
	note C#, 2
	note D#, 1
	octave 3
	note B_, 1
	octave 4
	note C#, 1
	note D#, 1
	note F_, 14
	note D#, 1
	note F_, 1
	note F#, 8
	note D#, 6
	note C#, 1
	note D#, 1
	note F_, 4
	volume_envelope 9, 4
	note F_, 4
	volume_envelope 6, 4
	note F_, 4
	volume_envelope 3, 4
	note F_, 4
	rest 8
	volume_envelope 11, 4
	note D#, 4
	octave 3
	note B_, 4
	octave 4
	note C#, 2
	note D#, 4
	note C#, 1
	octave 3
	note B_, 1
	note G#, 4
	note F#, 1
	note G#, 1
	note B_, 1
	octave 4
	note D#, 1
	note F#, 4
	note F_, 4
	note D#, 4
	octave 3
	note B_, 4
	octave 4
	note C#, 16
	note F#, 4
	rest 4
	note G#, 4
	note F#, 4
	note F_, 8
	note G#, 4
	note B_, 3
	note_type 6, 11, 4
	note B_, 1
	octave 5
	note C#, 1
	note_type 12, 11, 4
	note D#, 2
	note C#, 2
	octave 4
	note B_, 2
	note G#, 2
	note F#, 4
	note G#, 4
	note C#, 4
	rest 4
	octave 3
	note G#, 1
	note A#, 1
	octave 4
	note C#, 1
	note F_, 1
	note D#, 1
	note C#, 1
	octave 3
	note B_, 1
	note A#, 1
	note B_, 4
	note A#, 2
	note B_, 2
	octave 4
	note C#, 4
	octave 3
	note F#, 1
	note G#, 1
	note A#, 1
	note B_, 1
	octave 8
	sound_loop 0, .mainLoop

Music_NihonTime_Ch3:
	note_type 12, 1, 0
.mainLoop:
	octave 2
.loop1:
	vibrato 5, 2, 6
	volume_envelope 2, 5
	octave 3
	note C#, 4
	note F_, 2
	note D#, 2
	note F_, 1
	note F#, 3
	note F_, 2
	note D#, 2
	octave 2
	note B_, 1
	note B_, 3
	note A#, 2
	note B_, 2
	octave 3
	note C#, 2
	note C#, 2
	note F_, 2
	note D#, 2
	note C#, 4
	note F_, 2
	note D#, 2
	note F_, 1
	note F#, 3
	note F_, 2
	note D#, 2
	octave 2
	note B_, 1
	note B_, 3
	note A#, 2
	note B_, 2
	octave 3
	note C#, 2
	note C#, 2
	note F_, 2
	note D#, 2
	note F_, 4
	note G#, 2
	note F#, 2
	note G#, 1
	note A#, 3
	note G#, 2
	note F#, 2
	note D#, 1
	note D#, 3
	note C#, 2
	note D#, 2
	note F_, 2
	note F_, 2
	note G#, 2
	note F#, 2
	note_type 12, 2, 5
	note C#, 4
	note F_, 2
	note D#, 2
	note F_, 1
	note F#, 3
	note F_, 2
	note D#, 2
	octave 2
	note B_, 1
	note B_, 3
	note A#, 2
	note B_, 2
	octave 3
	note C#, 2
	note C#, 2
	note F_, 2
	note D#, 2
	octave 2
	sound_loop 2, .loop1
	octave 8
	sound_loop 0, .mainLoop

Music_NihonTime_Ch4:
	toggle_noise 0
	drum_speed 12
.mainLoop:
	toggle_noise
	toggle_noise 3
	octave 6
	sound_call .sub1
	drum_speed 12
	sound_call .sub1
	drum_speed 12
	octave 6
	sound_call .sub1
	drum_speed 12
	octave 6
	sound_call .sub1
	drum_speed 12
	octave 6
	sound_call .sub1
	drum_speed 12
	octave 6
	sound_call .sub1
	drum_speed 12
	octave 6
	sound_call .sub1
	drum_speed 12
	octave 6
	sound_call .sub1
	drum_speed 12
	octave 6
	sound_call .sub2
	drum_speed 12
	octave 6
	sound_call .sub2
	drum_speed 12
	octave 6
	sound_call .sub2
	drum_speed 12
	octave 6
	sound_call .sub2
	drum_speed 12
	octave 6
	sound_call .sub2
	drum_speed 12
	octave 6
	sound_call .sub2
	drum_speed 12
	octave 6
	sound_call .sub2
	drum_speed 12
	octave 6
	sound_call .sub2
	octave 8
	drum_speed 12
	sound_loop 0, .mainLoop

.sub1:
	drum_note 4, 4
	drum_note 3, 2
	drum_note 4, 1
	drum_note 4, 2
	drum_note 8, 1
	drum_note 4, 2
	drum_note 3, 2
	drum_note 8, 1
	drum_speed 6
	drum_note 8, 1
	drum_note 8, 1
	sound_ret

.sub2:
	drum_note 4, 2
	drum_note 7, 1
	drum_note 4, 1
	drum_note 3, 1
	drum_note 3, 1
	drum_note 4, 1
	drum_note 4, 1
	drum_note 4, 1
	drum_note 8, 1
	drum_note 4, 1
	drum_note 8, 1
	drum_note 3, 2
	drum_note 8, 1
	drum_speed 6
	drum_note 8, 1
	drum_note 8, 1
	sound_ret
