Music_SinjohRuins:
	channel_count 4
	channel 1, Music_SinjohRuins_Ch1
	channel 2, Music_SinjohRuins_Ch2
	channel 3, Music_SinjohRuins_Ch3
	channel 4, Music_SinjohRuins_Ch4

Music_SinjohRuins_Ch1:
	tempo 358
	volume 7, 7
	note_type 12, 15, 8
.mainLoop:
.loop1:
	note_type 6, 15, 8
	transpose 2, 0
	octave 3
	duty_cycle 0
	note B_, 1
	rest 1
	note_type 12, 15, 8
	rest 3
	note_type 6, 15, 8
	note B_, 1
	rest 1
	note_type 12, 15, 8
	rest 2
	note_type 6, 15, 8
	rest 2
	note B_, 1
	rest 3
	note_type 12, 15, 8
	rest 2
	note_type 6, 15, 8
	note B_, 1
	note_type 1, 15, 8
	rest 6
	note_type 12, 15, 8
	rest 3
	note_type 6, 15, 8
	note A_, 1
	rest 1
	note_type 12, 15, 8
	rest 3
	note_type 6, 15, 8
	note A_, 1
	rest 1
	note_type 12, 15, 8
	rest 3
	note_type 6, 15, 8
	note A_, 1
	note_type 1, 15, 8
	rest 6
	note_type 12, 15, 8
	rest 3
	note_type 6, 15, 8
	note A_, 1
	octave 1
	rest 1
	note_type 12, 15, 8
	rest 3
	note_type 6, 15, 8
	sound_loop 4, .loop1
	note_type 12, 15, 8
	volume_envelope 0, -3
	octave 4
	duty_cycle 2
	stereo_panning TRUE, FALSE
	note E_, 4
	volume_envelope 15, 2
	note E_, 4
	note_type 12, 15, 8
	volume_envelope 0, -3
	stereo_panning FALSE, TRUE
	note E_, 4
	volume_envelope 15, 2
	note E_, 4
	volume_envelope 0, -3
	stereo_panning TRUE, FALSE
	note D_, 4
	volume_envelope 15, 2
	note D_, 4
	volume_envelope 0, -3
	stereo_panning FALSE, TRUE
	note D_, 4
	volume_envelope 15, 2
	note D_, 4
	volume_envelope 0, -3
	stereo_panning TRUE, FALSE
	note C_, 4
	volume_envelope 15, 2
	note C_, 4
	volume_envelope 0, -3
	stereo_panning FALSE, TRUE
	note C_, 4
	volume_envelope 15, 2
	note C_, 4
	volume_envelope 0, -3
	stereo_panning TRUE, FALSE
	note D_, 4
	volume_envelope 15, 2
	note D_, 4
	volume_envelope 0, -3
	stereo_panning FALSE, TRUE
	note D_, 4
	volume_envelope 15, 2
	note D_, 4
	note_type 6, 15, 2
	duty_cycle 0
	volume_envelope 15, 8
	note E_, 1
	rest 1
	volume_envelope 7, 8
	note E_, 1
	rest 1
	stereo_panning TRUE, TRUE
	volume_envelope 15, 8
	note D_, 1
	rest 1
	volume_envelope 7, 8
	note D_, 1
	rest 1
	volume_envelope 15, 8
	note F_, 1
	rest 1
	note G_, 1
	volume_envelope 7, 8
	note F_, 1
	volume_envelope 15, 8
	note E_, 1
	volume_envelope 7, 8
	note G_, 1
	volume_envelope 15, 8
	note D_, 1
	volume_envelope 7, 8
	note E_, 1
	volume_envelope 15, 8
	note E_, 1
	rest 1
	volume_envelope 7, 8
	note E_, 1
	rest 1
	volume_envelope 15, 8
	note D_, 1
	rest 1
	volume_envelope 7, 8
	note D_, 1
	rest 1
	volume_envelope 15, 8
	note F_, 1
	rest 1
	volume_envelope 7, 8
	note F_, 1
	rest 1
	volume_envelope 3, 8
	note F_, 1
	rest 1
	volume_envelope 1, 8
	note F_, 1
	rest 1
	volume_envelope 15, 8
	note D_, 1
	rest 1
	volume_envelope 7, 8
	note D_, 1
	rest 1
	volume_envelope 15, 8
	note F_, 1
	rest 1
	volume_envelope 7, 8
	note F_, 1
	rest 1
	volume_envelope 15, 8
	note A_, 1
	rest 1
	note G#, 1
	volume_envelope 7, 8
	note A_, 1
	volume_envelope 15, 8
	note F_, 1
	volume_envelope 7, 8
	note G#, 1
	volume_envelope 15, 8
	note D_, 1
	volume_envelope 7, 8
	note F_, 1
	volume_envelope 15, 8
	note E_, 1
	rest 1
	volume_envelope 7, 8
	note E_, 1
	rest 1
	volume_envelope 3, 8
	note E_, 1
	rest 1
	volume_envelope 1, 8
	note E_, 1
	rest 1
	volume_envelope 15, 8
	note F_, 1
	rest 1
	volume_envelope 7, 8
	note F_, 1
	rest 1
	volume_envelope 15, 8
	note E_, 1
	rest 1
	volume_envelope 7, 8
	note E_, 1
	rest 1
	volume_envelope 15, 8
	note D_, 1
	rest 1
	volume_envelope 7, 8
	note D_, 1
	rest 1
	volume_envelope 15, 8
	note C_, 1
	rest 1
	volume_envelope 7, 8
	note C_, 1
	rest 1
	volume_envelope 15, 8
	note D#, 1
	rest 1
	note F_, 1
	volume_envelope 7, 8
	note D#, 1
	volume_envelope 15, 8
	note D_, 1
	volume_envelope 7, 8
	note F_, 1
	volume_envelope 15, 8
	note C_, 1
	volume_envelope 7, 8
	note D_, 1
	volume_envelope 15, 8
	note D_, 1
	rest 1
	volume_envelope 7, 8
	note D_, 1
	rest 1
	volume_envelope 15, 8
	note C_, 1
	rest 1
	volume_envelope 7, 8
	note C_, 1
	rest 1
	volume_envelope 15, 8
	note D#, 1
	rest 1
	volume_envelope 7, 8
	note D#, 1
	rest 1
	volume_envelope 3, 8
	note D#, 1
	rest 1
	volume_envelope 1, 8
	note D#, 1
	rest 1
	volume_envelope 15, 8
	note C_, 1
	rest 1
	volume_envelope 7, 8
	note C_, 1
	rest 1
	volume_envelope 15, 8
	note D#, 1
	rest 1
	volume_envelope 7, 8
	note D#, 1
	rest 1
	volume_envelope 15, 8
	note G_, 1
	rest 1
	note F#, 1
	volume_envelope 7, 8
	note G_, 1
	volume_envelope 15, 8
	note D#, 1
	volume_envelope 7, 8
	note F#, 1
	volume_envelope 15, 8
	note C_, 1
	volume_envelope 7, 8
	note D#, 1
	volume_envelope 15, 8
	note D_, 1
	rest 1
	volume_envelope 7, 8
	note D_, 1
	rest 1
	volume_envelope 3, 8
	note D_, 1
	rest 1
	volume_envelope 1, 8
	note D_, 1
	rest 1
	volume_envelope 15, 8
	note D#, 1
	rest 1
	volume_envelope 7, 8
	note D#, 1
	rest 1
	volume_envelope 15, 8
	note D_, 1
	rest 1
	volume_envelope 7, 8
	note D_, 1
	octave 1
	rest 1
	sound_loop 0, .mainLoop

Music_SinjohRuins_Ch2:
	note_type 12, 15, 8
.mainLoop:
.loop1:
	note_type 12, 15, 8
	duty_cycle 2
	volume_envelope 0, -3
	stereo_panning TRUE, FALSE
	octave 4
	transpose 2, 0
	note E_, 4
	volume_envelope 15, 2
	note E_, 4
	volume_envelope 0, -3
	stereo_panning FALSE, TRUE
	note E_, 4
	volume_envelope 15, 2
	note E_, 4
	volume_envelope 0, -3
	stereo_panning TRUE, FALSE
	note D_, 4
	volume_envelope 15, 2
	note D_, 4
	volume_envelope 0, -3
	stereo_panning FALSE, TRUE
	note D_, 4
	volume_envelope 15, 2
	note D_, 4
	volume_envelope 0, -3
	stereo_panning TRUE, FALSE
	note C_, 4
	volume_envelope 15, 2
	note C_, 4
	volume_envelope 0, -3
	stereo_panning FALSE, TRUE
	note C_, 4
	volume_envelope 15, 2
	note C_, 4
	volume_envelope 0, -3
	stereo_panning TRUE, FALSE
	note D_, 4
	volume_envelope 15, 2
	note D_, 4
	volume_envelope 0, -3
	stereo_panning FALSE, TRUE
	note D_, 4
	volume_envelope 15, 2
	note D_, 4
	octave 1
	sound_loop 2, .loop1
	stereo_panning TRUE, TRUE
	volume_envelope 15, 8
	note_type 11, 15, 8
	octave 3
	transpose 2, 0
	duty_cycle 0
	note E_, 8
	note_type 1, 15, 8
	rest 8
	note_type 11, 15, 8
	note E_, 8
	note_type 1, 15, 8
	rest 8
	note_type 11, 15, 8
	note D_, 8
	note_type 1, 15, 8
	rest 8
	note_type 11, 15, 8
	note D_, 8
	note_type 1, 15, 8
	rest 8
	note_type 11, 15, 8
	note C_, 8
	note_type 1, 15, 8
	rest 8
	note_type 11, 15, 8
	note C_, 8
	note_type 1, 15, 8
	rest 8
	note_type 11, 15, 8
	note D_, 8
	note_type 1, 15, 8
	rest 8
	note_type 11, 15, 8
	note D_, 8
	note_type 1, 15, 8
	rest 8
	volume_envelope 15, 2
	note_type 11, 15, 2
	volume_envelope 15, 8
	stereo_panning TRUE, FALSE
	note E_, 8
	note_type 1, 15, 2
	rest 8
	note_type 11, 15, 2
	volume_envelope 15, 8
	stereo_panning FALSE, TRUE
	note E_, 8
	note_type 1, 15, 2
	rest 8
	volume_envelope 15, 8
	note_type 11, 15, 8
	stereo_panning TRUE, FALSE
	note D_, 8
	note_type 1, 15, 8
	rest 8
	note_type 11, 15, 8
	stereo_panning FALSE, TRUE
	note D_, 8
	note_type 1, 15, 8
	rest 8
	note_type 11, 15, 8
	stereo_panning TRUE, FALSE
	note C_, 8
	note_type 1, 15, 8
	rest 8
	note_type 11, 15, 8
	stereo_panning FALSE, TRUE
	note C_, 8
	note_type 1, 15, 8
	rest 8
	note_type 11, 15, 8
	stereo_panning TRUE, FALSE
	note D_, 8
	note_type 1, 15, 8
	rest 8
	note_type 11, 15, 8
	stereo_panning FALSE, TRUE
	note D_, 8
	note_type 1, 15, 8
	rest 8
	note_type 12, 15, 8
	octave 1
	stereo_panning TRUE, TRUE
	sound_loop 0, .mainLoop

Music_SinjohRuins_Ch3:
	note_type 12, 1, 0
.mainLoop:
.loop1:
	volume_envelope 1, 1
	octave 6
	note_type 6, 1, 1
	note B_, 1
	octave 7
	note C_, 1
	octave 6
	note B_, 1
	note A_, 1
	note F#, 1
	rest 1
	octave 5
	note B_, 1
	note_type 1, 1, 0
	rest 6
	octave 6
	volume_envelope 1, 1
	note_type 6, 1, 1
	note E_, 1
	note_type 1, 1, 0
	rest 6
	volume_envelope 2, 1
	note_type 6, 2, 1
	note E_, 1
	rest 1
	note E_, 1
	note_type 1, 1, 0
	rest 6
	volume_envelope 3, 1
	note_type 6, 3, 1
	note E_, 1
	note_type 1, 1, 0
	rest 6
	volume_envelope 3, 1
	note_type 6, 3, 1
	note E_, 1
	rest 1
	note_type 12, 1, 0
	rest 6
	note_type 6, 1, 0
	rest 2
	volume_envelope 1, 1
	note A_, 1
	note A#, 1
	note A_, 1
	note G_, 1
	note E_, 1
	rest 1
	octave 5
	note A_, 1
	rest 1
	octave 6
	note D_, 1
	rest 1
	volume_envelope 2, 1
	note D_, 1
	rest 1
	note D_, 1
	rest 1
	volume_envelope 3, 1
	note D_, 1
	rest 1
	note D_, 1
	octave 5
	rest 3
	note_type 12, 1, 0
	rest 6
	sound_loop 4, .loop1
.loop2:
	volume_envelope 1, 1
	note_type 6, 1, 1
	octave 6
	note E_, 1
	note_type 1, 1, 0
	rest 6
	volume_envelope 3, 0
	note_type 6, 3, 0
	note E_, 1
	rest 1
	volume_envelope 1, 1
	note D_, 1
	note_type 1, 1, 1
	rest 6
	volume_envelope 3, 1
	note_type 6, 3, 1
	note D_, 1
	rest 1
	note_type 6, 1, 1
	note F_, 1
	rest 1
	note G_, 1
	volume_envelope 3, 1
	note F_, 1
	volume_envelope 1, 1
	note E_, 1
	volume_envelope 3, 1
	note G_, 1
	volume_envelope 1, 1
	note D_, 1
	volume_envelope 3, 1
	note E_, 1
	volume_envelope 1, 1
	note E_, 1
	rest 1
	volume_envelope 3, 1
	note E_, 1
	rest 1
	volume_envelope 1, 1
	note D_, 1
	rest 1
	volume_envelope 3, 1
	note D_, 1
	rest 1
	volume_envelope 1, 1
	note F_, 1
	rest 1
	volume_envelope 2, 1
	note F_, 1
	rest 1
	volume_envelope 3, 1
	note F_, 1
	rest 1
	note F_, 1
	note_type 3, 3, 1
	rest 2
	note_type 6, 1, 1
	note D_, 1
	note_type 1, 1, 1
	rest 1
	note_type 5, 1, 1
	rest 1
	volume_envelope 3, 1
	note_type 6, 3, 1
	note D_, 1
	rest 1
	volume_envelope 1, 1
	note F_, 1
	note_type 1, 1, 1
	rest 1
	note_type 5, 1, 1
	rest 1
	volume_envelope 3, 1
	note_type 6, 3, 1
	note F_, 1
	rest 1
	note_type 6, 1, 1
	note A_, 1
	note_type 1, 1, 1
	rest 1
	note_type 5, 1, 1
	rest 1
	note_type 6, 1, 1
	note G#, 1
	volume_envelope 3, 1
	note A_, 1
	note_type 6, 1, 1
	note F_, 1
	volume_envelope 3, 1
	note G#, 1
	volume_envelope 1, 1
	note D_, 1
	volume_envelope 3, 1
	note F_, 1
	volume_envelope 1, 1
	note E_, 1
	note_type 1, 1, 1
	rest 1
	note_type 5, 1, 1
	rest 1
	volume_envelope 2, 1
	note_type 6, 2, 1
	note E_, 1
	note_type 1, 2, 1
	rest 1
	note_type 5, 2, 1
	rest 1
	volume_envelope 3, 1
	note_type 6, 3, 1
	note E_, 1
	note_type 1, 0, 1
	rest 1
	note_type 5, 0, 1
	rest 1
	volume_envelope 3, 1
	note_type 6, 3, 1
	note E_, 1
	note_type 1, 0, 1
	rest 1
	note_type 5, 0, 1
	rest 1
	note_type 6, 1, 1
	note F_, 1
	note_type 1, 1, 1
	rest 1
	note_type 5, 1, 1
	rest 1
	volume_envelope 3, 1
	note_type 6, 3, 1
	note F_, 1
	rest 1
	note_type 6, 1, 1
	note E_, 1
	note_type 1, 1, 1
	rest 1
	note_type 5, 1, 1
	rest 1
	volume_envelope 3, 1
	note_type 6, 3, 1
	note E_, 1
	note_type 1, 3, 1
	rest 1
	note_type 5, 3, 1
	rest 1
	note_type 6, 1, 1
	note D_, 1
	note_type 1, 1, 1
	rest 1
	note_type 5, 1, 1
	rest 1
	volume_envelope 3, 1
	note_type 6, 3, 1
	note D_, 1
	note_type 1, 3, 1
	rest 1
	note_type 5, 3, 1
	rest 1
	note_type 6, 1, 1
	note C_, 1
	note_type 1, 1, 1
	rest 1
	note_type 5, 1, 1
	rest 1
	volume_envelope 3, 1
	note_type 6, 3, 1
	note C_, 1
	note_type 1, 3, 1
	rest 1
	note_type 5, 3, 1
	rest 1
	note_type 6, 1, 1
	note D#, 1
	note_type 1, 1, 1
	rest 1
	note_type 5, 1, 1
	rest 1
	note_type 6, 1, 1
	note F_, 1
	volume_envelope 3, 1
	note D#, 1
	note_type 6, 1, 1
	note D_, 1
	volume_envelope 3, 1
	note F_, 1
	note_type 6, 1, 1
	note C_, 1
	volume_envelope 3, 1
	note D_, 1
	note_type 6, 1, 1
	note D_, 1
	note_type 1, 1, 1
	rest 1
	note_type 5, 1, 1
	rest 1
	volume_envelope 3, 1
	note_type 6, 3, 1
	note D_, 1
	note_type 1, 3, 1
	rest 1
	note_type 5, 3, 1
	rest 1
	note_type 6, 1, 1
	note C_, 1
	note_type 1, 1, 1
	rest 1
	note_type 5, 1, 1
	rest 1
	volume_envelope 3, 1
	note_type 6, 3, 1
	note C_, 1
	note_type 1, 3, 1
	rest 1
	note_type 5, 3, 1
	rest 1
	note_type 6, 1, 1
	note D#, 1
	note_type 1, 1, 1
	rest 1
	note_type 5, 1, 1
	rest 1
	volume_envelope 2, 1
	note_type 6, 2, 1
	note D#, 1
	note_type 1, 2, 1
	rest 1
	note_type 5, 2, 1
	rest 1
	volume_envelope 3, 1
	note_type 6, 3, 1
	note D#, 1
	note_type 1, 3, 1
	rest 1
	note_type 5, 3, 1
	rest 1
	note_type 6, 3, 1
	note D#, 1
	note_type 1, 3, 1
	rest 1
	note_type 5, 3, 1
	rest 1
	note_type 6, 1, 1
	note C_, 1
	note_type 1, 1, 1
	rest 1
	note_type 5, 1, 1
	rest 1
	volume_envelope 3, 1
	note_type 6, 3, 1
	note C_, 1
	note_type 1, 3, 1
	rest 1
	note_type 5, 3, 1
	rest 1
	note_type 6, 1, 1
	note D#, 1
	note_type 1, 1, 1
	rest 1
	note_type 5, 1, 1
	rest 1
	volume_envelope 3, 1
	note_type 6, 3, 1
	note D#, 1
	note_type 1, 3, 1
	rest 1
	note_type 5, 3, 1
	rest 1
	note_type 6, 1, 1
	note G_, 1
	note_type 1, 1, 1
	rest 1
	note_type 5, 1, 1
	rest 1
	note_type 6, 1, 1
	note F#, 1
	volume_envelope 3, 1
	note G_, 1
	volume_envelope 1, 1
	note D#, 1
	volume_envelope 3, 1
	note F#, 1
	note_type 6, 1, 1
	note C_, 1
	volume_envelope 3, 1
	note D#, 1
	note_type 6, 1, 1
	note D_, 1
	note_type 1, 1, 1
	rest 1
	note_type 5, 1, 1
	rest 1
	volume_envelope 2, 1
	note_type 6, 2, 1
	note D_, 1
	note_type 1, 2, 1
	rest 1
	note_type 5, 2, 1
	rest 1
	volume_envelope 3, 1
	note_type 6, 3, 1
	note D_, 1
	note_type 1, 3, 1
	rest 1
	note_type 5, 3, 1
	rest 1
	note_type 6, 3, 1
	note D_, 1
	note_type 1, 3, 1
	rest 1
	note_type 5, 3, 1
	rest 1
	note_type 6, 1, 1
	note D#, 1
	note_type 1, 1, 1
	rest 1
	note_type 5, 1, 1
	rest 1
	volume_envelope 3, 1
	note_type 6, 3, 1
	note D#, 1
	note_type 1, 3, 1
	rest 6
	note_type 6, 1, 1
	note D_, 1
	note_type 1, 1, 1
	rest 1
	note_type 5, 1, 1
	rest 1
	volume_envelope 3, 1
	note_type 6, 3, 1
	note D_, 1
	octave 5
	rest 1
	sound_loop 2, .loop2
	sound_loop 0, .mainLoop

Music_SinjohRuins_Ch4:
	toggle_noise 0
	drum_speed 12
.mainLoop:
.loop1:
	octave 5
	rest 3
	drum_speed 3
	drum_note 8, 1
	drum_note 8, 1
	drum_note 8, 1
	drum_note 8, 1
	drum_note 8, 1
	rest 1
	drum_note 8, 1
	rest 1
	drum_note 8, 1
	rest 1
	drum_note 8, 1
	rest 1
	drum_note 8, 1
	rest 1
	drum_note 8, 1
	rest 1
	drum_note 8, 1
	rest 1
	drum_note 8, 1
	rest 1
	drum_speed 12
	rest 3
	drum_speed 3
	drum_note 8, 1
	drum_note 8, 1
	drum_note 8, 1
	drum_note 8, 1
	drum_note 8, 1
	rest 1
	drum_note 8, 1
	rest 1
	drum_note 8, 1
	rest 1
	drum_note 8, 1
	rest 1
	drum_note 8, 1
	rest 1
	drum_note 8, 1
	rest 1
	drum_note 8, 1
	rest 1
	drum_note 8, 1
	rest 1
	drum_speed 12
	octave 4
	sound_loop 8, .loop1
	sound_loop 0, .mainLoop
